# xmcd
#
# Track frame offsets: 
#        150
#        9480
#        30092
#        47107
#        64657
#        81120
#        95487
#        99992
#        115802
#        136582
#        144685
#        162142
#        177560
#        197415
#
# Disc length: 2731 seconds
#
# Revision: 9
# Processed by: cddbd v1.5.2PL0 Copyright (c) Steve Scherf et al.
# Submitted via: ExactAudioCopyFreeDBPlugin 1.0
#
DISCID=a90aa90e
DTITLE=Hi-Tek - Hi-Teknology
DYEAR=2001
DGENRE=Hip-Hop
TTITLE0=Scratch Rappin
TTITLE1=Hi-Tek, Common, Vinia Mojica - The Sun God feat. Common and Vini
TTITLE1=a Mojica
TTITLE2=Hi-Tek, Talib Kweli, DCQ - Get Back Pt. II feat. Talib Kweli &
TTITLE2=DCQ
TTITLE3=Hi-Tek, Donte, Main Flow, Brian Digby Jr, Crunch - Breakin' Br
TTITLE3=ead feat. Donte, Main Flow, Brian Digby Jr. and Crunch
TTITLE4=Hi-Tek, Cormega, Jonell - All I Need Is You feat. Cormega and Jo
TTITLE4=nell
TTITLE5=Hi-Tek, Jinx Da Juvy - Where I'm From feat. Jinx Da Juvy
TTITLE6=Tony Guitar Watson
TTITLE7=Hi-Tek, Jonell - Round and Round feat. Jonell
TTITLE8=Hi-Tek, Mos Def, Vinia Mojica - Get Ta Steppin' feat. Mos Def 
TTITLE8=& Vinia Mojica
TTITLE9=Hi-Tek, Talib Kweli - Theme From Hi-Tek feat. Talib Kweli
TTITLE10=Hi-Tek, Slum Village - L.T.A.H. feat Slum Village
TTITLE11=Hi-Tek, Donte, Main Flow Of MOOD - Suddenly feat. Mood
TTITLE12=Hi-Tek, Buckshot - The Illest It Gets feat. Buckshot
TTITLE13=Hi-Tek, Jonell - Hi-Teknology feat. Jonell
EXTD=www.RapMusicGuide.com\n
EXTT0=
EXTT1=
EXTT2=
EXTT3=
EXTT4=
EXTT5=
EXTT6=
EXTT7=
EXTT8=
EXTT9=
EXTT10=
EXTT11=
EXTT12=
EXTT13=
PLAYORDER=
